<svg xmlns="http://www.w3.org/2000/svg" xmlns:xlink="http://www.w3.org/1999/xlink" x="0" y="0" viewBox="0 0 128 128"><path fill="#fff" d="M76,31.8C70.3,18.4,57,9,41.5,9C20.8,9,4,25.8,4,46.5S20.8,84,41.5,84h60c12.4,0,22.5-10.1,22.5-22.5 S113.9,39,101.5,39c-9.9,0-18.3,6.4-21.3,15.3"/><path fill="#444b54" d="M101.5,36c-10.9,0-20.7,7-24.2,17.3c-0.5,1.6,0.3,3.3,1.9,3.8c1.6,0.5,3.3-0.3,3.8-1.9 C85.7,47.3,93.1,42,101.5,42c10.8,0,19.5,8.7,19.5,19.5S112.3,81,101.5,81h-60C22.5,81,7,65.5,7,46.5S22.5,12,41.5,12 c13.9,0,26.3,8.2,31.7,21c0.7,1.5,2.4,2.2,3.9,1.6c1.5-0.6,2.2-2.4,1.6-3.9C72.4,15.7,57.8,6,41.5,6C19.2,6,1,24.2,1,46.5 C1,68,17.8,85.6,39,86.9V104c0,1.7,1.3,3,3,3s3-1.3,3-3V87h44v17c0,1.7,1.3,3,3,3s3-1.3,3-3V87h6.5c14.1,0,25.5-11.4,25.5-25.5 S115.6,36,101.5,36z"/><path fill="#444b54" d="M67,96c-1.7,0-3,1.3-3,3v20c0,1.7,1.3,3,3,3s3-1.3,3-3V99C70,97.3,68.7,96,67,96z"/></svg>