<svg xmlns="http://www.w3.org/2000/svg" xmlns:xlink="http://www.w3.org/1999/xlink" x="0" y="0" viewBox="0 0 128 128"><path fill="#fff" d="M76,31.8C70.3,18.4,57,9,41.5,9C20.8,9,4,25.8,4,46.5S20.8,84,41.5,84h60c12.4,0,22.5-10.1,22.5-22.5 S113.9,39,101.5,39c-9.9,0-18.3,6.4-21.3,15.3"/><path fill="#444b54" d="M101.5 87c-1.7 0-3-1.3-3-3s1.3-3 3-3c10.8 0 19.5-8.7 19.5-19.5S112.3 42 101.5 42c-8.4 0-15.8 5.3-18.5 13.3-.5 1.6-2.2 2.4-3.8 1.9-1.6-.5-2.4-2.2-1.9-3.8C80.8 43 90.6 36 101.5 36c14.1 0 25.5 11.4 25.5 25.5S115.6 87 101.5 87zM41.5 87C19.2 87 1 68.8 1 46.5S19.2 6 41.5 6c16.3 0 30.9 9.7 37.3 24.6.7 1.5-.1 3.3-1.6 3.9-1.5.7-3.3-.1-3.9-1.6-5.4-12.7-17.9-21-31.7-21C22.5 12 7 27.5 7 46.5S22.5 81 41.5 81c1.7 0 3 1.3 3 3S43.2 87 41.5 87zM88 101H76.2l5.9-10.2c.8-1.4.3-3.3-1.1-4.1-1.4-.8-3.3-.3-4.1 1.1L71 98l-5.9-10.2c-.8-1.4-2.7-1.9-4.1-1.1-1.4.8-1.9 2.7-1.1 4.1l5.9 10.2H54c-1.7 0-3 1.3-3 3s1.3 3 3 3h11.8l-5.9 10.2c-.8 1.4-.3 3.3 1.1 4.1.5.3 1 .4 1.5.4 1 0 2-.5 2.6-1.5L71 110l5.9 10.2c.6 1 1.6 1.5 2.6 1.5.5 0 1-.1 1.5-.4 1.4-.8 1.9-2.7 1.1-4.1L76.2 107H88c1.7 0 3-1.3 3-3S89.7 101 88 101z"/></svg>