<svg xmlns="http://www.w3.org/2000/svg" xmlns:xlink="http://www.w3.org/1999/xlink" viewBox="0 0 128 128"><path fill="#fff" d="M64 14A50 50 0 1 0 64 114A50 50 0 1 0 64 14Z"/><path fill="#444b54" d="M64,117c-29.2,0-53-23.8-53-53s23.8-53,53-53c29.2,0,53,23.8,53,53S93.2,117,64,117z M64,17c-25.9,0-47,21.1-47,47s21.1,47,47,47s47-21.1,47-47S89.9,17,64,17z"/><path fill="#444b54" d="M64,74c-2.7,0-5.2-1-7.1-2.9C55,69.2,54,66.7,54,64s1-5.2,2.9-7.1C58.8,55,61.3,54,64,54c2.7,0,5.2,1,7.1,2.9c3.9,3.9,3.9,10.2,0,14.1c0,0,0,0,0,0C69.2,73,66.7,74,64,74z M69,68.9L69,68.9L69,68.9z M64,60c-1.1,0-2.1,0.4-2.8,1.2C60.4,61.9,60,62.9,60,64s0.4,2.1,1.2,2.8c1.5,1.5,4.1,1.5,5.7,0c0.8-0.8,1.2-1.8,1.2-2.8s-0.4-2.1-1.2-2.8C66.1,60.4,65.1,60,64,60z"/><path fill="#71c2ff" d="M34 67c-1.7 0-3-1.3-3-3 0-18.2 14.8-33 33-33 4.4 0 8.8.9 12.8 2.6 1.5.6 2.2 2.4 1.6 3.9-.6 1.5-2.4 2.2-3.9 1.6C71.2 37.7 67.6 37 64 37c-14.9 0-27 12.1-27 27C37 65.7 35.7 67 34 67zM79 93c-1 0-2-.5-2.6-1.5-.8-1.4-.3-3.3 1.1-4.1C85.8 82.6 91 73.6 91 64c0-3.6-.7-7.2-2.1-10.5-.6-1.5.1-3.3 1.6-3.9 1.5-.6 3.3.1 3.9 1.6C96.1 55.2 97 59.6 97 64c0 11.8-6.3 22.7-16.5 28.6C80 92.9 79.5 93 79 93z"/><path fill="#444b54" d="M68.9,62.1c-0.8,0-1.5-0.3-2.1-0.9c-1.2-1.2-1.2-3.1,0-4.2l16.3-16.3c1.2-1.2,3.1-1.2,4.2,0c1.2,1.2,1.2,3.1,0,4.2L71.1,61.2C70.5,61.8,69.7,62.1,68.9,62.1z"/><path fill="#71c2ff" d="M49,93c-0.5,0-1-0.1-1.5-0.4C37.3,86.7,31,75.8,31,64c0-1.7,1.3-3,3-3s3,1.3,3,3c0,9.6,5.2,18.6,13.5,23.4c1.4,0.8,1.9,2.7,1.1,4.1C51.1,92.5,50.1,93,49,93z"/></svg>