<svg xmlns="http://www.w3.org/2000/svg" xmlns:xlink="http://www.w3.org/1999/xlink" x="0" y="0" viewBox="0 0 128 128"><path fill="#fff" d="M76,31.8C70.3,18.4,57,9,41.5,9C20.8,9,4,25.8,4,46.5S20.8,84,41.5,84h60c12.4,0,22.5-10.1,22.5-22.5 S113.9,39,101.5,39c-9.9,0-18.3,6.4-21.3,15.3"/><path fill="#444b54" d="M101.5 87H94c-1.7 0-3-1.3-3-3s1.3-3 3-3h7.5c10.8 0 19.5-8.7 19.5-19.5S112.3 42 101.5 42c-8.4 0-15.8 5.3-18.5 13.3-.5 1.6-2.2 2.4-3.8 1.9-1.6-.5-2.4-2.2-1.9-3.8C80.8 43 90.6 36 101.5 36c14.1 0 25.5 11.4 25.5 25.5S115.6 87 101.5 87zM44 87h-2.5C19.2 87 1 68.8 1 46.5S19.2 6 41.5 6c16.3 0 30.9 9.7 37.3 24.6.6 1.5-.1 3.3-1.6 3.9-1.5.6-3.3-.1-3.9-1.6-5.4-12.7-17.9-21-31.7-21C22.5 12 7 27.5 7 46.5S22.5 81 41.5 81H44c1.7 0 3 1.3 3 3S45.7 87 44 87zM64 127c-.7 0-1.4-.3-2-.8-1.2-1.1-1.3-3-.2-4.2l13.5-15H56c-1.2 0-2.3-.7-2.7-1.8-.5-1.1-.3-2.3.5-3.2l18-20c1.1-1.2 3-1.3 4.2-.2 1.2 1.1 1.3 3 .2 4.2l-13.5 15H82c1.2 0 2.3.7 2.7 1.8.5 1.1.3 2.3-.5 3.2l-18 20C65.6 126.7 64.8 127 64 127z"/></svg>