<svg xmlns="http://www.w3.org/2000/svg" xmlns:xlink="http://www.w3.org/1999/xlink" x="0" y="0" viewBox="0 0 128 128"><path fill="#444b54" d="M85.9,117c-1.9,0-3.7-0.2-5.6-0.7c-1.6-0.4-2.6-2-2.2-3.6c0.4-1.6,2-2.6,3.6-2.2c5.8,1.5,12-0.2,16.2-4.5 c5.7-5.7,6.6-14.7,2.1-21.5l-16.6-25c-0.9-1.4-0.5-3.2,0.8-4.2c1.4-0.9,3.2-0.5,4.2,0.8l16.6,25c6.1,9.1,4.9,21.3-2.9,29 C97.9,114.6,92,117,85.9,117z"/><path fill="#fff" d="M65.2,105.2L65.2,105.2c-11.7,11.7-30.7,11.7-42.4,0l0,0c-10.1-10.1-11.7-26-3.7-37.9l25-37.4l25,37.4 C76.9,79.3,75.3,95.1,65.2,105.2z"/><path fill="#444b54" d="M44,117c-8.5,0-16.9-3.2-23.3-9.6C9.6,96.2,7.8,78.7,16.5,65.7l25-37.4c0.6-0.8,1.5-1.3,2.5-1.3 s1.9,0.5,2.5,1.3l25,37.4c8.7,13,7,30.6-4.1,41.6c0,0,0,0,0,0C60.9,113.8,52.5,117,44,117z M44,35.3L21.5,69 c-7.1,10.7-5.7,25,3.4,34.1c10.5,10.5,27.7,10.5,38.2,0C72.2,94,73.6,79.7,66.5,69L44,35.3z M65.2,105.2L65.2,105.2L65.2,105.2z"/></svg>